<?xml version="1.0" encoding="iso-8859-1"?>
<!-- Generator: Adobe Illustrator 19.0.0, SVG Export Plug-In . SVG Version: 6.00 Build 0)  -->
<svg version="1.1" id="Capa_1" xmlns="http://www.w3.org/2000/svg" xmlns:xlink="http://www.w3.org/1999/xlink" x="0px" y="0px"
	 viewBox="0 0 480 480" style="enable-background:new 0 0 480 480;" xml:space="preserve">
<g>
	<g>
		<path d="M116.27,144.699c2.451-5.226,3.725-10.927,3.73-16.699c0-22.091-17.909-40-40-40s-40,17.909-40,40
			c0.006,5.772,1.279,11.473,3.73,16.699C18.519,148.911,0.034,170.712,0,196.273V272c0,4.418,3.582,8,8,8h24v104
			c0,4.418,3.582,8,8,8h80c4.418,0,8-3.582,8-8V280h24c4.418,0,8-3.582,8-8v-75.727C159.966,170.712,141.481,148.911,116.27,144.699
			z M144,264h-16v-80h-16v192H88V264H72v112H48V184H32v80H16v-67.727c0.023-20.024,16.25-36.25,36.273-36.273h6.762
			c4.418,0,7.999-3.581,7.999-7.999c0-2.307-0.996-4.502-2.733-6.021C59.038,141.489,56.004,134.919,56,128
			c0-13.255,10.745-24,24-24s24,10.745,24,24c-0.004,6.919-3.037,13.489-8.301,17.98c-3.325,2.908-3.663,7.961-0.755,11.287
			c1.519,1.737,3.714,2.733,6.021,2.733h6.762c20.024,0.023,36.25,16.25,36.273,36.273V264z"/>
	</g>
</g>
<g>
	<g>
		<path d="M472,0h-64c-4.418,0-8,3.582-8,8v64c0,4.418,3.582,8,8,8h64c4.418,0,8-3.582,8-8V8C480,3.582,476.418,0,472,0z M464,64
			h-48V16h48V64z"/>
	</g>
</g>
<g>
	<g>
		<path d="M478.785,467.762l-40-64c-2.653-3.747-7.841-4.634-11.589-1.981c-0.768,0.544-1.438,1.214-1.981,1.981l-40,64
			c-2.34,3.748-1.199,8.683,2.549,11.024c1.271,0.793,2.739,1.214,4.237,1.214h80c2.908,0,5.587-1.578,6.996-4.121
			C480.406,473.336,480.325,470.228,478.785,467.762z M406.434,464L432,423.094L457.566,464H406.434z"/>
	</g>
</g>
<g>
	<g>
		<path d="M440,200c-22.091,0-40,17.909-40,40s17.909,40,40,40c22.091,0,40-17.909,40-40C479.974,217.919,462.081,200.026,440,200z
			 M440,264c-13.255,0-24-10.745-24-24s10.745-24,24-24s24,10.745,24,24C463.986,253.249,453.249,263.986,440,264z"/>
	</g>
</g>
<g>
	<g>
		<path d="M382.785,235.763c-0.646-1.034-1.52-1.907-2.555-2.552l-64.219-40c-3.75-2.337-8.684-1.191-11.021,2.559
			c-0.804,1.291-1.224,2.784-1.21,4.304L303.926,216H192c-4.418,0-8,3.582-8,8v32c0,4.418,3.582,8,8,8h112v16c0,4.418,3.582,8,8,8
			c1.499,0,2.967-0.421,4.238-1.215l64-40C383.985,244.445,385.126,239.51,382.785,235.763z M320,265.566V256c0-4.418-3.582-8-8-8
			H200v-16h112c4.416,0.003,7.998-3.575,8-7.991c0-0.028,0-0.055,0-0.083l-0.086-9.434l40.973,25.519L320,265.566z"/>
	</g>
</g>
<g>
	<g>
		<path d="M369.738,40.191C369.167,40.064,368.584,40,368,40h-72c-4.418,0-8,3.581-8,7.999c0,1.58,0.468,3.125,1.344,4.439
			l11.465,17.199C272.319,86.914,239.631,96.033,206.313,96H192c-4.418,0-8,3.582-8,8v32c0,4.418,3.582,8,8,8h26.941
			c39.225,0.075,77.581-11.544,110.172-33.371l17.625,15.395c3.325,2.907,8.377,2.567,11.284-0.758
			c0.882-1.009,1.496-2.223,1.786-3.531l16-72C376.768,45.422,374.049,41.15,369.738,40.191z M347.113,105.109l-12.164-10.625
			c-2.789-2.446-6.896-2.647-9.91-0.484c-30.928,22.174-68.042,34.068-106.098,34H200v-16h6.313
			c39.201,0.038,77.53-11.567,110.125-33.344c3.675-2.451,4.669-7.417,2.219-11.094L310.949,56h47.078L347.113,105.109z"/>
	</g>
</g>
<g>
	<g>
		<path d="M375.809,430.266l-16-72c-0.957-4.312-5.227-7.032-9.539-6.075c-1.308,0.29-2.522,0.904-3.531,1.786l-17.625,15.395
			c-32.59-21.828-70.947-33.446-110.172-33.371H192c-4.418,0-8,3.582-8,8v32c0,4.418,3.582,8,8,8h14.313
			c33.319-0.033,66.007,9.086,94.496,26.363l-11.465,17.199c-2.451,3.676-1.459,8.642,2.217,11.093
			C292.875,439.532,294.42,440,296,440h72c4.417,0.001,7.999-3.58,7.999-7.997C375.999,431.419,375.935,430.836,375.809,430.266z
			 M310.949,424l7.707-11.563c2.45-3.676,1.457-8.642-2.219-11.094c-32.595-21.777-70.924-33.382-110.125-33.344H200v-16h18.941
			c38.055-0.068,75.17,11.826,106.098,34c3.015,2.159,7.12,1.958,9.91-0.484l12.164-10.625L358.027,424H310.949z"/>
	</g>
</g>
<g>
	<g>
		<rect x="48" width="40" height="16"/>
	</g>
</g>
<g>
	<g>
		<path d="M8,0C3.582,0,0,3.582,0,8v24h16V16h16V0H8z"/>
	</g>
</g>
<g>
	<g>
		<rect x="0" y="48" width="16" height="40"/>
	</g>
</g>
<g>
	<g>
		<rect x="0" y="392" width="16" height="40"/>
	</g>
</g>
<g>
	<g>
		<path d="M16,464v-16H0v24c0,4.418,3.582,8,8,8h24v-16H16z"/>
	</g>
</g>
<g>
	<g>
		<rect x="48" y="464" width="40" height="16"/>
	</g>
</g>
<g>
</g>
<g>
</g>
<g>
</g>
<g>
</g>
<g>
</g>
<g>
</g>
<g>
</g>
<g>
</g>
<g>
</g>
<g>
</g>
<g>
</g>
<g>
</g>
<g>
</g>
<g>
</g>
<g>
</g>
</svg>
