<?xml version="1.0" encoding="iso-8859-1"?>
<!-- Generator: Adobe Illustrator 19.0.0, SVG Export Plug-In . SVG Version: 6.00 Build 0)  -->
<svg version="1.1" id="Capa_1" xmlns="http://www.w3.org/2000/svg" xmlns:xlink="http://www.w3.org/1999/xlink" x="0px" y="0px"
	 viewBox="0 0 512 512" style="enable-background:new 0 0 512 512;" xml:space="preserve">
<g>
	<g>
		<path d="M474.465,145.81l-18.32-32.451c-0.501-0.878-5.18-8.649-15.08-11.326c-9.409-2.547-18.065,0.62-26.548,5.508
			c-18.383,10.608-35.428,22.407-46.459,19.389c-3.996-1.091-8.124,1.266-9.215,5.264c-1.092,3.997,1.265,8.123,5.264,9.214
			c17.502,4.775,35.558-7.814,60.017-21.943c12.347-7.13,17.654-0.793,19.02,1.393l18.252,32.33c1.38,2.442,3.922,3.815,6.542,3.815
			C473.654,157.005,477.29,150.814,474.465,145.81z"/>
	</g>
</g>
<g>
	<g>
		<path d="M506.593,201.749l-14.773-25.587c-2.072-3.59-6.663-4.818-10.251-2.747c-3.589,2.072-4.819,6.662-2.747,10.251
			l14.771,25.586c5.927,10.269,3.22,17.835-3.159,21.446c-0.142,0.082-3.287,1.898-3.419,1.98
			c-0.908,0.549,3.696-2.113-28.083,16.201c-10.677,6.154-17.597,16.871-19.451,22.813c-11.125,35.473-4.955,27.728-68.338,64.26
			c0.704-8.099-1.939-16.668-8.049-23.061c20.381-10.714,21.213-39.962,0.937-51.64l-93.049-53.724l15.362-8.87
			c2.789-1.61,4.238-4.819,3.605-7.977c-0.634-3.156-3.211-5.557-6.404-5.966c-0.259-0.033-68.459-8.772-68.719-8.799
			c-21.62-2.097-19.907-27.716-2.476-29.781c116.599-13.07,108.575-12.569,117.764-12.118c4.133,0.201,7.66-2.987,7.864-7.127
			c0.204-4.139-2.987-7.659-7.126-7.864c-11.084-0.541-7.677-0.416-74.873,7.116c-68.031-7.625-63.123-7.25-69.449-7.25
			c-23.483,0-38.907,8.523-46.452,8.528c-9.002,0-21.37-7.451-29.319-12.037c-16.339-9.592-15.43-8.911-15.43-8.911
			c-18.169-10.489-33.465-3.721-39.543,6.921c-25.638,45.414-22.393,39.912-50.433,88.359c-11.001,19.064-3.525,35.064,8.684,41.967
			l0.001-0.001c0,0-0.259-0.126,31.481,18.166c23.612,13.609,6.462,40.204,43.708,61.664
			c156.676,90.302,148.327,87.307,159.111,87.307c16.25,0,29.457-13.181,29.583-29.272c12.649,7.303,17.557,11.162,27.23,11.162
			c11.533,0,21.875-6.753,26.616-16.684c6.542-3.777-2.743,1.491,90.955-52.513c15.917-9.171,22.306-20.891,24.698-27.061
			c0.138-0.358,6.211-19.75,6.326-20.117c0.36-0.92,3.883-9.415,12.682-14.486c29.938-17.255,31.484-18.168,31.484-18.168
			l0.001,0.001C508.07,237.972,518.717,222.754,506.593,201.749z M210.255,240.623c6.132,3.539,131.922,76.15,138.708,80.067
			c9.662,5.577,9.686,19.499,0.121,25.128c-3.154,1.859-6.99,2.536-10.754,1.643c-3.106-0.731,7.628,5.119-145.16-83.119
			c-3.589-2.071-8.179-0.843-10.252,2.746c-2.073,3.589-0.844,8.179,2.746,10.252c136.265,78.696,129.341,73.813,132.071,78.5
			c7.435,12.624-6.835,27.452-19.84,19.943l-10.502-6.063l-0.001-0.001c-4.575-2.641-18.061-10.427-24.252-14.001
			c0,0-92.767-53.553-93.129-53.762c-3.589-2.074-8.179-0.844-10.251,2.747c-2.072,3.59-0.842,8.18,2.748,10.251l93.13,53.762
			c12.782,7.379,7.589,27.13-7.296,27.13c-5.562,0,3.993,4.388-151.617-85.303c-11.731-6.758-16.366-14.883-18.111-19.264
			c-0.052-0.168-6.153-19.624-6.21-19.79c-0.202-0.583-5.096-14.373-19.388-22.61c-50.631-29.181-10.37-5.967-31.5-18.18
			c-7.897-4.652-8.051-12.969-3.159-21.446c30.492-52.812,19.707-33.93,50.451-88.389c0.393-0.622,3.184-4.699,8.785-4.699
			c4.902,0,9.07,2.399,20.866,9.38c38.289,22.686,40.089,18.398,68.178,10.73c13.386-3.093,20.622-2.735,32.201-1.437
			c-22.542,12.59-20.464,52.526,14.426,56.003c6.016,0.77,4.15,0.532,8.597,1.101c-0.079,2.723,1.334,5.319,3.749,6.714
			c141.108,81.472,132.138,75.962,134.295,78.249c10.486,11.131-1.413,28.449-15.187,23.655
			c-2.066-0.689,5.666,3.621-126.957-72.933c-3.59-2.073-8.179-0.841-10.251,2.748C205.435,233.962,206.666,238.552,210.255,240.623
			z"/>
	</g>
</g>
<g>
</g>
<g>
</g>
<g>
</g>
<g>
</g>
<g>
</g>
<g>
</g>
<g>
</g>
<g>
</g>
<g>
</g>
<g>
</g>
<g>
</g>
<g>
</g>
<g>
</g>
<g>
</g>
<g>
</g>
</svg>
